<svg width="192" height="192" viewBox="0 0 192 192" fill="none" xmlns="http://www.w3.org/2000/svg">
<rect width="192" height="192" fill="#EDEDED"/>
<path d="M99.648 90.8364L82.1303 21.5529C78.56 7.43897 64.816 -2.07749 50.4389 0.389998C43.2732 1.61918 36.2263 4.92132 31.4994 12.1641C23.2252 24.8482 27.3074 41.9222 39.8652 50.4125L99.648 90.8364Z" fill="#EAA1C7"/>
<path d="M101.792 83.7076L30.336 78.9209C15.7806 77.9448 2.45945 88.0474 0.37031 102.453C-0.671975 109.632 0.297168 117.34 5.74173 124.063C15.2754 135.833 32.8137 137.235 44.7863 127.945L101.792 83.7076Z" fill="#EAA1C7"/>
<path d="M95.6594 79.4681L69.0149 145.794C63.5863 159.303 69.0994 175.064 82.1874 181.499C88.7086 184.706 96.3543 186.17 104.446 183.08C118.61 177.67 125.367 161.463 120.21 147.231L95.6594 79.4681Z" fill="#EAA1C7"/>
<path d="M89.7257 83.9767L144.715 129.755C155.888 139.057 172.576 138.736 182.754 128.362C187.861 123.155 191.655 116.33 191.207 107.66C190.427 92.5468 177.067 81.1261 161.906 81.621L89.7257 83.9767Z" fill="#EAA1C7"/>
<path d="M92.1897 91.0029L152.821 52.9712C165.17 45.2244 169.995 29.2404 163.2 16.3602C159.813 9.94292 154.489 4.27363 146.123 2.02735C131.477 -1.90421 116.462 7.24511 112.249 21.7832L92.1897 91.0029Z" fill="#EAA1C7"/>
<path d="M95.6206 111.979C110.315 111.979 122.226 100.094 122.226 85.4339C122.226 70.7736 110.315 58.889 95.6206 58.889C80.9266 58.889 69.0149 70.7736 69.0149 85.4339C69.0149 100.094 80.9266 111.979 95.6206 111.979Z" fill="#F89952"/>
</svg>
